# xmcd
#
# Track frame offsets: 
#        150
#        4820
#        25104
#        44727
#        77488
#        85810
#        148384
#        177457
#        219966
#
# Disc length: 3326 seconds
#
# Revision: 0
# Processed by: cddbd v1.5PL3 Copyright (c) Steve Scherf et al.
# Submitted via: ExactAudioCopy v0.90b4
#
DISCID=750cfc09
DTITLE=The String Cheese Incident - On The Road - Austin, TX 09-19-03 
DTITLE=[CD1]
DYEAR=2003
DGENRE=Alternative
TTITLE0=Intro
TTITLE1=Texas Town
TTITLE2=Lonesome Fiddle Blues>
TTITLE3=Barton Springs Jam>
TTITLE4=Lonesome Fiddle Blues
TTITLE5=Water
TTITLE6=Looking Glass
TTITLE7=!Bam!
TTITLE8=Sirens
EXTD=
EXTT0=
EXTT1=
EXTT2=
EXTT3=
EXTT4=
EXTT5=
EXTT6=
EXTT7=
EXTT8=
PLAYORDER=
